<svg width="36" height="36" viewBox="0 0 36 36" fill="none" xmlns="http://www.w3.org/2000/svg">
<rect width="36" height="36" rx="18" fill="#282828"/>
<mask id="mask0_168_556" style="mask-type:alpha" maskUnits="userSpaceOnUse" x="6" y="6" width="24" height="24">
<rect x="6" y="6" width="24" height="24" fill="#D9D9D9"/>
</mask>
<g mask="url(#mask0_168_556)">
<path d="M9 26C8.45 26 7.97933 25.8043 7.588 25.413C7.196 25.021 7 24.55 7 24V13H9V24H26V26H9ZM13 22C12.45 22 11.9793 21.804 11.588 21.412C11.196 21.0207 11 20.55 11 20V12C11 11.45 11.196 10.9793 11.588 10.588C11.9793 10.196 12.45 10 13 10H27C27.55 10 28.021 10.196 28.413 10.588C28.8043 10.9793 29 11.45 29 12V20C29 20.55 28.8043 21.0207 28.413 21.412C28.021 21.804 27.55 22 27 22H13ZM15 20C15 19.45 14.804 18.979 14.412 18.587C14.0207 18.1957 13.55 18 13 18V20H15ZM25 20H27V18C26.45 18 25.979 18.1957 25.587 18.587C25.1957 18.979 25 19.45 25 20ZM20 19C20.8333 19 21.5417 18.7083 22.125 18.125C22.7083 17.5417 23 16.8333 23 16C23 15.1667 22.7083 14.4583 22.125 13.875C21.5417 13.2917 20.8333 13 20 13C19.1667 13 18.4583 13.2917 17.875 13.875C17.2917 14.4583 17 15.1667 17 16C17 16.8333 17.2917 17.5417 17.875 18.125C18.4583 18.7083 19.1667 19 20 19ZM13 14C13.55 14 14.0207 13.804 14.412 13.412C14.804 13.0207 15 12.55 15 12H13V14ZM27 14V12H25C25 12.55 25.1957 13.0207 25.587 13.412C25.979 13.804 26.45 14 27 14Z" fill="#52AC52"/>
</g>
</svg>
